<?xml version="1.0" encoding="iso-8859-1"?>
<!-- Uploaded to: SVG Repo, www.svgrepo.com, Generator: SVG Repo Mixer Tools -->
<!DOCTYPE svg PUBLIC "-//W3C//DTD SVG 1.1//EN" "http://www.w3.org/Graphics/SVG/1.1/DTD/svg11.dtd">
<svg fill="#000000" height="800px" width="800px" version="1.1" id="Capa_1" xmlns="http://www.w3.org/2000/svg" xmlns:xlink="http://www.w3.org/1999/xlink" 
	 viewBox="0 0 297 297" xml:space="preserve">
<path d="M129.608,232.551c34.162,0,80.947,0,80.947-41.617c0-3.889-0.421-7.725-1.244-11.48c2.346,0.012,4.668,0.02,6.946,0.02
	c31.769,0,56.767-1.389,70.702-15.252c6.662-6.627,10.04-15.498,10.04-26.367c0-20.359-11.474-39.223-32.307-53.111
	c-19.63-13.086-45.545-20.293-72.972-20.293c-48.013,0-89.223,22.252-101.532,53.818c-21.744,2.143-41.897,8.898-57.883,19.555
	C11.474,151.711,0,170.574,0,190.934c0,18.025,9.025,30.215,26.826,36.23c14.709,4.971,34.803,5.387,54.122,5.387H129.608z
	 M80.948,213.232c-17.713,0-36.005-0.336-47.938-4.369c-9.854-3.33-13.692-8.357-13.692-17.93c0-13.693,8.419-26.848,23.705-37.039
	c7.152-4.768,15.362-8.604,24.296-11.422c-2.238,5.066-3.572,11.051-3.572,18.08c0,5.334,4.325,9.658,9.659,9.658
	c5.334,0,9.658-4.324,9.658-9.658c0-9.32,3.22-15.361,10.133-19.012c5.652-2.986,11.691-3.193,12.112-3.203
	c0.332,0.008,6.052,0.197,11.587,2.965c7.229,3.615,10.598,9.73,10.598,19.25c0,5.334,4.324,9.658,9.658,9.658
	s9.658-4.324,9.658-9.658c0-7.029-1.334-13.014-3.572-18.08c8.934,2.818,17.145,6.654,24.296,11.422
	c15.286,10.191,23.706,23.346,23.706,37.039c0,17.297-13.824,22.299-61.631,22.299H80.948z M201.039,160.113
	c-5.429-8.268-13.094-15.828-22.79-22.291c-17.994-11.996-41.276-19.033-66.157-20.125c8.013-12.328,23.032-22.35,41.635-28.225
	c-2.218,5.049-3.536,11.008-3.536,18c0,5.334,4.324,9.658,9.658,9.658s9.658-4.324,9.658-9.658c0-9.318,3.221-15.361,10.134-19.012
	c5.652-2.986,11.691-3.191,12.111-3.203c0.332,0.008,6.053,0.197,11.588,2.965c7.23,3.615,10.597,9.732,10.597,19.25
	c0,5.334,4.324,9.658,9.658,9.658s9.659-4.324,9.659-9.658c0-7.029-1.334-13.014-3.572-18.08c8.934,2.82,17.144,6.654,24.296,11.422
	c15.286,10.191,23.705,23.346,23.705,37.039c0,7.482-2.48,10.816-4.346,12.674C263.392,160.42,231.373,160.275,201.039,160.113z"/>
</svg>